Coordinates
nRows=6
nColumns=38

# SIMM Motion File Header:
name Coordinates
datacolumns 38
datarows 6
otherdata 1
range 1.96560000000000000000 1.97060000000000010000

Units are S.I. units (second, meters, Newtons, ...)
Angles are in degrees.

endheader
time	pelvis_tilt	pelvis_list	pelvis_rotation	pelvis_tx	pelvis_ty	pelvis_tz	hip_flexion_r	hip_adduction_r	hip_rotation_r	knee_angle_r	ankle_angle_r	subtalar_angle_r	mtp_angle_r	hip_flexion_l	hip_adduction_l	hip_rotation_l	knee_angle_l	ankle_angle_l	subtalar_angle_l	mtp_angle_l	lumbar_extension	lumbar_bending	lumbar_rotation	arm_flex_r	arm_add_r	arm_rot_r	elbow_flex_r	pro_sup_r	wrist_flex_r	wrist_dev_r	arm_flex_l	arm_add_l	arm_rot_l	elbow_flex_l	pro_sup_l	wrist_flex_l	wrist_dev_l
      1.96560000000000000000	     -0.15484934685220381000	     -7.05709348813542730000	    -11.03168784051426200000	      0.87866890071366666000	      1.03824725005033410000	     -0.30742284184739715000	     11.81899355931961000000	     14.74398872433373800000	      6.99394609512760820000	    -40.59241683547304500000	     26.27385189852728700000	     -0.00000000000002946214	      0.00000000000000141257	     26.48573213218042000000	     -9.39412411930934790000	     -0.61880303893060640000	    -85.97427335076446300000	     12.42963951347869400000	      0.00000000000000269396	     -0.00000000000000702779	    -20.71155526202068500000	      6.39444649731477010000	     13.06805606366858900000	     -4.69820672381569080000	    -30.16025098546895200000	      0.57668021018643534000	    102.09043304830767000000	    103.30887361526050000000	     -0.00000000000000675206	     -0.00000000000001400030	    -17.40332990376628100000	    -17.31016364408369100000	     10.37735250755022600000	     98.61884178182947400000	    108.74772301995449000000	     -0.00000000000000410778	     -0.00000000000000052423
      1.96660000000000010000	     -0.22777535593401127000	     -6.97742689226101300000	    -11.08088353449134200000	      0.87853093764055412000	      1.03848698610664280000	     -0.30728915510157095000	     11.69965792290744800000	     14.67473816250187300000	      7.09461982405327700000	    -40.45303466901113200000	     26.26747475203729800000	     -0.00000000000002977697	      0.00000000000000166538	     26.68769440546100200000	     -9.36327867884388350000	     -0.64348368477466000000	    -85.80617733396373100000	     12.44098773207901900000	      0.00000000000000272162	     -0.00000000000000708072	    -20.61063388792066300000	      6.30348583681903120000	     13.17682977930248700000	     -4.62108124817039020000	    -30.15193508202368700000	      0.53665943804119443000	    102.33099583627302000000	    103.31480868598720000000	     -0.00000000000000683240	     -0.00000000000001412323	    -17.54587316793834300000	    -17.37136232761819000000	     10.38714023779058600000	     98.78167402317691900000	    108.53813719994152000000	     -0.00000000000000414066	     -0.00000000000000050860
      1.96760000000000000000	     -0.30121417174715032000	     -6.89635147412521120000	    -11.12873000280353100000	      0.87839700584793812000	      1.03873137267740630000	     -0.30715726225406087000	     11.58026190544759300000	     14.60365776589346400000	      7.19479701756043970000	    -40.31137992493465600000	     26.25914698354127800000	     -0.00000000000003009965	      0.00000000000000189400	     26.88872647073410600000	     -9.33082745028256790000	     -0.66846021046198212000	    -85.63362303134310600000	     12.45062649561941500000	      0.00000000000000274833	     -0.00000000000000712767	    -20.50802874310352700000	      6.21151818249898470000	     13.28412867946387100000	     -4.54696846531378010000	    -30.14258871894677200000	      0.49571862626879787000	    102.57262267001273000000	    103.31969171137939000000	     -0.00000000000000691268	     -0.00000000000001424650	    -17.68880782301490500000	    -17.43318797635695800000	     10.39653788962973700000	     98.94571379574574600000	    108.32121805537389000000	     -0.00000000000000417317	     -0.00000000000000048833
      1.96860000000000010000	     -0.37509086283781651000	     -6.81390689894296030000	    -11.17517916907879900000	      0.87826710520777174000	      1.03898050683271580000	     -0.30702729765046688000	     11.46074420138851100000	     14.53075149633315800000	      7.29440844683201740000	    -40.16746340323562900000	     26.24880760405449100000	     -0.00000000000003042245	      0.00000000000000211338	     27.08873752088670300000	     -9.29676946706966410000	     -0.69371022590379361000	    -85.45662028057564900000	     12.45860066521153300000	      0.00000000000000277316	     -0.00000000000000716455	    -20.40385358295882100000	      6.11858674392347710000	     13.38993627256462900000	     -4.47586708597528830000	    -30.13222945979540100000	      0.45388870908212980000	    102.81531130910771000000	    103.32338174642925000000	     -0.00000000000000699299	     -0.00000000000001437074	    -17.83207599093719900000	    -17.49559902228161000000	     10.40555984519044900000	     99.11079147860714000000	    108.09763410341800000000	     -0.00000000000000420575	     -0.00000000000000047412
      1.96960000000000000000	     -0.44933086276538731000	     -6.73013343179719570000	    -11.22018506019583100000	      0.87814123384826903000	      1.03923448365333650000	     -0.30689939092179447000	     11.34104357871107600000	     14.45602513035226100000	      7.39338697378926660000	    -40.02129715885556700000	     26.23639431192197000000	     -0.00000000000003074818	      0.00000000000000234393	     27.28763654140676600000	     -9.26110453356935000000	     -0.71921240937396236000	    -85.27517853778609000000	     12.46495597487268700000	      0.00000000000000279627	     -0.00000000000000719117	    -20.29822277869141400000	      6.02473376243808460000	     13.49423566896632400000	     -4.40777153168363790000	    -30.12087543916978700000	      0.41120265862466698000	    103.05905884780802000000	    103.32574149822274000000	     -0.00000000000000707381	     -0.00000000000001449655	    -17.97562460315802800000	    -17.55855348276680100000	     10.41421626150748700000	     99.27674480979654000000	    107.86806988520577000000	     -0.00000000000000423848	     -0.00000000000000046443
      1.97060000000000010000	     -0.52386026374504946000	     -6.64507184587453900000	    -11.26370384062571300000	      0.87801938810804525000	      1.03949339557377200000	     -0.30677366696164826000	     11.22109928193148700000	     14.37948622367141000000	      7.49166745000955370000	    -39.87289465638740200000	     26.22184357958148100000	     -0.00000000000003107451	      0.00000000000000259193	     27.48533264667883100000	     -9.22383321295429860000	     -0.74494648285599163000	    -85.08930688681141400000	     12.46973870332909400000	      0.00000000000000281982	     -0.00000000000000722137	    -20.19125090705080800000	      5.93000053028112180000	     13.59700959830036900000	     -4.34267205593750210000	    -30.10854523916733400000	      0.36769523692827344000	    103.30386155200644000000	    103.32663825228173000000	     -0.00000000000000715539	     -0.00000000000001462383	    -18.11940523406931900000	    -17.62200901382160000000	     10.42251326572811000000	     99.44341888120126800000	    107.63322280200175000000	     -0.00000000000000427089	     -0.00000000000000045373
